<?xml version="1.0" encoding="UTF-8" standalone="no"?>
<!-- Created with Inkscape (http://www.inkscape.org/) -->

<svg
   xmlns:dc="http://purl.org/dc/elements/1.1/"
   xmlns:cc="http://creativecommons.org/ns#"
   xmlns:rdf="http://www.w3.org/1999/02/22-rdf-syntax-ns#"
   xmlns:svg="http://www.w3.org/2000/svg"
   xmlns="http://www.w3.org/2000/svg"
   xmlns:sodipodi="http://sodipodi.sourceforge.net/DTD/sodipodi-0.dtd"
   xmlns:inkscape="http://www.inkscape.org/namespaces/inkscape"
   width="210mm"
   height="297mm"
   viewBox="0 0 210 297"
   version="1.1"
   id="svg8"
   inkscape:version="0.92.3 (2405546, 2018-03-11)"
   sodipodi:docname="drawing.svg"
   inkscape:export-filename="/home/zen/aplikasi-android/keystore/cover.png"
   inkscape:export-xdpi="25.400002"
   inkscape:export-ydpi="25.400002">
  <defs
     id="defs2" />
  <sodipodi:namedview
     id="base"
     pagecolor="#ffffff"
     bordercolor="#666666"
     borderopacity="1.0"
     inkscape:pageopacity="0.0"
     inkscape:pageshadow="2"
     inkscape:zoom="0.17328911"
     inkscape:cx="1382.8571"
     inkscape:cy="1468.5714"
     inkscape:document-units="mm"
     inkscape:current-layer="layer1"
     showgrid="false"
     inkscape:window-width="1366"
     inkscape:window-height="659"
     inkscape:window-x="0"
     inkscape:window-y="17"
     inkscape:window-maximized="1" />
  <metadata
     id="metadata5">
    <rdf:RDF>
      <cc:Work
         rdf:about="">
        <dc:format>image/svg+xml</dc:format>
        <dc:type
           rdf:resource="http://purl.org/dc/dcmitype/StillImage" />
        <dc:title></dc:title>
      </cc:Work>
    </rdf:RDF>
  </metadata>
  <g
     inkscape:label="Layer 1"
     inkscape:groupmode="layer"
     id="layer1">
    <rect
       style="opacity:1;fill:#00ffff;fill-opacity:1;stroke:none;stroke-width:1.36110497"
       id="rect10"
       width="1024"
       height="500"
       x="-140.60715"
       y="-336.048" />
    <text
       xml:space="preserve"
       style="font-style:normal;font-weight:normal;font-size:10.58333302px;line-height:1.25;font-family:sans-serif;letter-spacing:0px;word-spacing:0px;fill:#000000;fill-opacity:1;stroke:none;stroke-width:0.26458332"
       x="-50.385452"
       y="-269.45462"
       id="text821"><tspan
         sodipodi:role="line"
         id="tspan819"
         x="-50.385452"
         y="-260.09085"
         style="stroke-width:0.26458332" /></text>
    <path
       style="opacity:1;fill:#ff0000;fill-opacity:1;stroke:none;stroke-width:0.26458332"
       id="path825"
       d="m -82.764301,-263.84715 c 7.942736,0.44555 15.812595,-1.37801 23.496786,-3.16775 10.331061,-2.37686 20.706749,-4.49903 31.11869,-6.48838 9.049307,-2.02766 18.1814503,-3.62358 27.33891661,-5.06815 2.36718259,-0.49289 4.75290169,-0.64092 7.16055279,-0.66415 2.611687,-0.0615 2.0014631,3.53179 1.6136697,5.16837 -2.8138355,7.61007 -8.22161252,13.8591 -12.6820447,20.52121 -1.3090416,1.95519 -2.5307088,3.96748 -3.7960633,5.95122 -5.9270731,9.88686 -11.4199241,20.05712 -15.8641761,30.69979 -3.469767,8.57269 -5.954643,17.49744 -8.295552,26.43075 -1.621065,5.80065 -3.098157,11.64206 -4.121463,17.57962 -0.238884,1.3848 -0.449691,2.78834 -0.445561,4.19674 0.265965,8.0131 2.795008,0.84341 -20.27887,10.50476 -0.539512,0.2259 0.198742,-1.17825 0.492072,-1.68428 1.405594,-2.42477 3.824282,-4.30172 5.796693,-6.14906 21.419457,-16.88085 45.3996345,-30.19234 68.987112,-43.71965 14.52905,-8.27224 29.914504,-14.75432 45.588551,-20.47887 8.311313,-2.89273 16.919371,-4.75675 25.61651,-6.00365 2.075556,-0.25114 1.125919,-0.15152 2.847359,-0.31329 0,0 -18.142363,13.39131 -18.142363,13.39131 v 0 c -1.478393,0.0796 -0.656026,0.0269 -2.466252,0.17069 -8.234961,0.88541 -16.328588,2.74923 -24.150534,5.48524 -15.267911,5.52443 -30.205382,11.91508 -44.3598403,19.92236 2.3694856,-1.42395 9.4624323,-5.7213 7.1084572,-4.27185 -14.1182792,8.69325 -28.4762899,17.196 -41.3292919,27.73342 -4.672409,4.37491 -25.200226,25.67224 -25.991518,15.72983 0.02439,-1.6171 0.151307,-3.20814 0.556384,-4.78507 1.621539,-6.04098 3.248015,-12.08034 4.992772,-18.08724 2.345151,-9.024 4.808485,-18.06745 8.221742,-26.75146 4.763156,-10.78747 10.198571,-21.2773 16.411554,-31.30582 5.165384,-8.28809 11.254034,-16.08113 15.122075,-25.10119 0.176692,-0.65611 0.195367,-1.39668 0.586646,-1.9522 0.118962,-0.16891 0.429856,0.28237 0.386623,0.48438 -0.05235,0.2446 -0.785193,-0.37333 -0.750341,-0.0119 -2.154915,0.018 -4.29619,0.29779 -6.440545,0.4858 -8.896217,1.01549 -17.701354,2.62897 -26.445396,4.5514 -10.463763,2.1069 -20.902187,4.31318 -31.304103,6.70917 -8.151437,1.8161 -16.384966,3.39281 -24.76724,3.50216 0,0 18.187989,-13.21435 18.187989,-13.21435 z"
       inkscape:connector-curvature="0" />
    <path
       style="opacity:1;fill:#ff0000;fill-opacity:1;stroke:none;stroke-width:0.26458332"
       id="path827"
       d="m 117.01955,-246.62656 c 4.2508,6.78233 12.04799,10.53354 18.94933,14.00589 8.78026,3.5866 18.21558,6.20146 27.74525,6.67503 1.62592,0.0808 3.25539,-0.0542 4.88309,-0.0813 4.37231,-0.36793 8.74142,-1.11534 12.86862,-2.65273 4.75367,-1.77076 28.89629,-15.84467 -10.91475,6.33898 3.87188,-3.72101 4.30125,-9.06773 4.33808,-14.15159 -0.53101,-6.86321 -2.64431,-13.55421 -5.23312,-19.89993 -2.84933,-6.36115 -5.97129,-7.96118 -12.53,-9.1971 -6.24978,-0.78139 -12.58676,-1.22036 -18.57579,0.99184 -0.63009,0.44592 -2.56801,1.70726 -1.89028,1.33774 5.80807,-3.1668 11.42223,-6.6883 17.29356,-9.73619 0.67455,-0.35018 -1.11332,1.03761 -1.62304,1.60136 -1.75752,1.94384 -3.29718,4.12996 -4.87613,6.21758 -4.007,5.77957 -8.09993,11.49669 -12.04823,17.31746 -1.71006,2.85719 -4.05086,5.51057 -5.10735,8.72805 -0.75553,2.30094 -0.84959,3.9454 -1.17508,6.37273 -0.664,7.2373 -0.4729,14.51639 -0.40993,21.77406 0.32261,5.16799 1.95019,10.1036 5.68697,13.76588 3.0691,2.36194 6.83687,3.13506 10.52788,4.00323 4.38325,0.93409 8.87286,1.08912 13.33668,1.21833 6.76146,0.32499 13.40569,-1.32257 19.78489,-3.39741 4.32732,-1.29274 8.48143,-3.26733 12.91316,-4.20203 0,0 -17.88315,13.65935 -17.88315,13.65935 v 0 c -4.06923,1.1477 -8.0811,2.47456 -12.11383,3.74311 -6.71284,1.90411 -13.59114,3.47094 -20.61949,3.12984 -4.57276,-0.15418 -9.15715,-0.49558 -13.6177,-1.57951 -4.07931,-1.01951 -8.20135,-1.98255 -11.29393,-5.04489 -3.75227,-4.35405 -5.6713,-9.67639 -6.12277,-15.40214 0.0135,-7.3406 0.11196,-14.68097 0.39528,-22.01671 0.19402,-2.93694 0.10245,-6.37542 1.26209,-9.15839 1.0574,-2.53761 3.28463,-4.60434 4.63149,-6.96032 3.95779,-5.69758 7.90703,-11.40356 11.65754,-17.23878 8.27772,-11.30044 11.12292,-15.00217 28.74686,-21.58844 6.2887,-1.36073 12.75285,-0.9578 19.0834,-0.0103 7.15348,1.73595 10.55475,4.13644 13.50624,11.09117 2.61311,6.59217 4.83257,13.46299 5.79321,20.50563 0.20794,5.50416 -0.10473,11.28854 -3.42844,15.91192 -15.93806,9.69019 -22.26064,16.21861 -39.54168,16.97958 -11.33746,-0.44453 -22.46237,-2.97995 -32.85724,-7.58804 -7.72884,-3.81533 -15.93682,-7.84851 -21.459057,-14.69196 0,0 19.917367,-10.77091 19.917367,-10.77091 z"
       inkscape:connector-curvature="0" />
    <path
       style="opacity:1;fill:#ff0000;fill-opacity:1;stroke:none;stroke-width:0.26458332"
       id="path829"
       d="m 222.32069,-255.54376 c -0.26399,4.35037 -0.36237,8.71664 -0.155,13.07058 0.0202,7.17865 3.65346,13.18795 7.05176,19.24043 2.85406,3.95857 5.22134,8.43697 8.58129,12.01239 5.5379,4.80295 28.76402,-12.26139 -18.37429,10.71586 -0.34516,0.16825 0.51298,-0.59852 0.63052,-0.96407 0.3733,-1.16089 0.53771,-4.05945 0.6257,-5.08486 0.30818,-12.30209 0.006,-24.62867 -0.0133,-36.93999 0.0713,-15.41824 -0.30086,-30.83377 -1.13727,-46.22879 -0.0307,-2.01065 -0.16969,-3.6218 0.16147,-5.57694 0.11361,-0.67072 0.61196,-2.60625 1.34257,-3.03742 20.05733,-11.83703 13.11917,-11.30101 23.19191,-11.57917 3.59946,0.2967 7.35825,-0.39153 10.91886,0.40084 1.92292,0.42794 2.96736,1.09331 4.69053,1.97051 5.05543,3.11878 9.41058,7.25313 14.01602,10.99879 4.00788,3.36706 7.34756,7.28998 9.98509,11.79573 1.98871,3.60069 2.68028,7.62399 3.57859,11.57719 0.79036,4.51043 2.57863,8.74916 3.96901,13.09016 1.42362,4.85362 3.55344,9.44758 5.73654,13.99528 2.46018,4.82882 4.94308,9.64617 7.27919,14.53889 1.15351,3.11656 2.99609,5.92732 4.20899,9.01337 0.14304,0.62819 0.36389,1.04395 0.79092,1.48647 0,0 -19.51426,11.613 -19.51426,11.613 v 0 c -0.45815,-0.67556 -0.93763,-1.34098 -1.01746,-2.18286 -0.95797,-3.12754 -2.54127,-6.01135 -3.62976,-9.09122 -2.22904,-4.9236 -4.72866,-9.72062 -7.25281,-14.49739 -2.32601,-4.60492 -4.33486,-9.34022 -5.91,-14.25941 -1.44762,-4.3771 -3.34423,-8.63086 -4.21053,-13.17943 -0.87847,-3.7461 -1.45626,-7.55906 -3.28194,-11.01372 -2.35289,-4.34605 -5.39722,-8.14888 -9.23601,-11.29782 -4.44881,-3.70014 -8.80746,-7.67781 -13.94134,-10.39865 -4.74703,-2.03512 -9.86463,-1.81713 -14.93819,-1.33591 -8.87691,1.89577 -1.85291,0.63651 15.35042,-10.02474 0.39994,-0.24784 -0.96022,0.18015 -1.33108,0.46971 -1.88253,1.46973 -1.57837,4.88188 -1.95499,6.83249 -0.67592,15.62243 -0.85936,31.26793 -0.24656,46.89692 0.50022,12.04665 1.45039,24.06451 1.94876,36.10459 0.003,1.66819 0.24682,6.87669 0.0468,7.00506 -14.28474,9.16726 -15.66248,16.86767 -21.72738,9.7258 -2.96598,-4.04617 -5.19772,-8.64844 -7.9922,-12.81286 -3.49815,-6.27241 -7.6395,-12.44601 -7.90239,-19.87276 -0.37175,-4.29101 -0.20508,-8.59694 -0.52028,-12.89274 0,0 20.18213,-10.28331 20.18213,-10.28331 z"
       inkscape:connector-curvature="0" />
    <path
       style="opacity:1;fill:#00ff00;fill-opacity:1;stroke:none;stroke-width:0.26458332"
       id="path837"
       d="m -82.914849,-99.986816 c 2.471875,11.884647 5.257088,23.696086 8.412708,35.417038 5.944682,20.730498 13.094925,41.065794 20.625482,61.2630751 5.201637,13.7012019 11.084766,27.1291279 16.511677,40.7387299 0.389163,0.991606 0.780357,1.982415 1.167487,2.974814 0.275792,0.70698 0.53163,1.421892 0.821278,2.123307 0.169849,0.411311 0.310734,0.842529 0.556617,1.213427 0.04055,0.06117 0.279582,-0.08409 0.214304,-0.05053 -20.307834,10.437555 -21.597453,17.406749 -19.581367,8.849918 1.478108,-10.449957 -1.174946,-20.524914 -4.078727,-30.470558 -2.806245,-9.753707 -6.874177,-19.1256331 -9.391208,-28.9589979 -1.027906,-7.4092321 -1.728838,-15.0403871 -0.373523,-22.4478541 0.637876,-3.382155 2.604191,-5.258535 5.491186,-6.954692 6.975872,-4.09843 14.003324,-8.10842 21.004988,-12.162633 4.572283,-2.316605 9.518737,-3.265961 14.555795,-3.886396 5.061058,-0.231661 10.485884,-1.375463 15.424167,0.336201 1.108692,0.384286 2.1245741,0.996833 3.186861,1.49525 7.89848676,4.627343 13.1417397,12.326072 18.615993,19.434164 6.782284,8.218644 13.162069,16.730633 18.960165,25.6689965 4.106722,5.75439534 7.313184,12.1212558 11.63247,17.7213915 5.945621,7.126808 14.190466,-2.297953 -17.30485,11.802107 -0.548705,0.245647 0.806136,-0.960814 0.920338,-1.551049 0.234501,-1.211985 0.06405,-2.468095 0.09607,-3.702142 C 21.84028,0.05209708 17.724805,-18.541902 14.400369,-37.261934 12.52653,-47.85343 10.735091,-58.461171 9.0456484,-69.083798 8.4033872,-73.122114 7.3099993,-79.822685 7.1004866,-83.984967 c -0.1212128,-2.408068 0.027573,-4.822155 0.04136,-7.233234 1.2259286,-13.258699 7.5522584,-23.152919 17.2856334,-31.794809 9.039245,-6.46389 5.855918,-4.34129 24.333214,-14.2754 1.12666,-0.60574 3.959553,-1.10411 5.273781,-1.00862 2.233956,0.1623 3.022034,0.82949 4.961665,1.83814 4.961488,3.6838 6.535296,9.42983 8.257913,15.05868 2.484996,8.82563 5.199563,17.56971 8.15979,26.247041 4.096049,11.118262 8.733739,22.033468 13.134398,33.035477 3.26314,8.106294 5.829294,16.480518 9.01692,24.613817 0.47199,1.204288 3.641289,8.497131 4.250929,9.905019 2.75507,6.241576 5.68271,12.435027 9.04747,18.3750514 2.22319,3.5177957 4.62686,6.9244109 7.02836,10.3236237 2.63793,2.9375754 4.15629,6.5721643 6.20615,9.8844359 0,0 -19.45594,11.212392 -19.45594,11.212392 v 0 c -1.76282,-3.393858 -3.22659,-6.947509 -5.806461,-9.8483 C 96.34109,8.8903116 93.676225,5.5157901 91.6414,1.758632 88.682077,-4.4925403 85.767454,-10.774861 83.295145,-17.237899 78.854696,-28.768159 74.825195,-40.441316 70.412704,-51.983592 65.941812,-62.978979 61.056257,-73.808425 56.871883,-84.918086 53.876468,-93.552088 50.879385,-102.182 48.149356,-110.90462 c -1.654958,-4.8987 -2.981119,-10.30841 -7.551288,-13.32419 -2.341216,-0.82539 -4.03865,-1.09818 -6.479828,-0.34514 -0.838536,0.25866 -3.192306,1.43238 -2.448862,0.96618 4.13044,-2.59007 23.847483,-14.14152 12.609777,-7.41043 -10.259702,7.93686 -17.177593,17.28224 -18.812962,30.4974 -0.05667,2.351304 -0.233613,4.702786 -0.170018,7.053913 0.0654,2.417799 0.355368,4.82437 0.556509,7.234677 1.12187,13.443571 2.776727,26.839494 5.179612,40.118243 0.739966,4.032912 1.402892,8.080722 2.219902,12.098735 2.93778,14.447861 7.198894,28.5656171 10.512361,42.9214318 0.212704,1.3158752 0.483561,2.6236612 0.638109,3.9476262 0.105738,0.905802 0.902105,2.228855 0.141637,2.732186 C 31.429264,24.266467 27.297385,32.491595 21.651281,23.59507 17.973646,17.543431 14.971155,11.094238 10.866855,5.2929427 5.2531972,-3.6884133 -1.1911672,-12.062882 -7.9373941,-20.223433 -13.363733,-26.98038 -18.569892,-34.389766 -26.497954,-38.397738 c -0.993537,-0.35833 -1.956414,-0.817057 -2.980616,-1.074986 -4.901862,-1.234458 -10.140662,-0.07826 -15.066103,0.289608 -4.946647,0.83277 -9.795885,2.115743 -14.18309,4.633589 29.840494,-17.363977 20.078237,-11.571771 13.532832,-7.667254 -0.359045,0.21418 -0.79129,0.305493 -1.120966,0.562594 -1.05945,0.826228 -1.219726,1.582113 -1.801727,2.794892 -2.334469,6.971889 -1.619703,14.53007 -0.42616,21.668987 2.15265,9.9579184 5.430597,19.6247437 8.412234,29.355327 2.976412,9.90867 6.032979,19.836742 5.967691,30.292739 0.985742,9.213348 0.740941,2.230978 -20.007048,12.861557 -0.239205,0.122561 -0.235998,-0.48574 -0.311711,-0.74363 -0.350713,-1.194572 -0.544981,-2.430031 -0.855364,-3.635713 -0.267938,-1.040813 -0.559435,-2.075418 -0.839152,-3.113127 C -60.424554,33.702 -65.605582,19.877729 -70.775385,6.0709013 -78.184305,-14.17901 -85.297377,-34.531689 -91.985157,-55.03261 c -3.504234,-11.325106 -6.429208,-22.858439 -10.642943,-33.945809 0,0 19.713251,-11.008397 19.713251,-11.008397 z"
       inkscape:connector-curvature="0" />
    <path
       style="opacity:1;fill:#00ff00;fill-opacity:1;stroke:none;stroke-width:0.26458332"
       id="path839"
       d="m 205.23313,-98.311114 c -4.04787,-1.098529 -8.27625,0.341746 -12.16092,1.544685 -7.11009,2.874317 -19.56908,9.777367 11.44196,-7.049941 0.7702,-0.41792 -1.44186,0.99774 -2.13465,1.53431 -1.50344,1.16441 -2.37392,2.01879 -3.76553,3.299304 -3.03468,3.005304 -6.17031,6.04104 -8.40149,9.712351 -1.71899,3.579818 -1.6643,7.639976 -1.77645,11.524713 0.009,10.021019 -6.46074,18.459786 -11.42512,26.685451 -5.58588,8.944594 -10.1104,18.497344 -13.16844,28.588317 -1.83339,6.366848 -0.74476,9.555054 3.25206,14.6658855 6.03544,6.317252 13.96288,9.3636736 22.27109,11.3436348 5.52508,0.8113475 11.56573,2.513834 16.95229,0.1264444 1.02208,-0.453 1.93957,-1.1124312 2.90936,-1.6686469 -31.28923,19.7648312 -10.29456,4.9747733 -3.39036,-0.4142029 3.00694,-1.99017238 4.60902,-4.5146818 5.36367,-7.96626 0.42146,-3.7153469 0.46171,-7.4863309 0.27705,-11.2182829 -1.09127,-8.288301 -3.4044,-16.383779 -5.53514,-24.456232 -1.9519,-6.895153 -4.97952,-13.37214 -8.04618,-19.81903 -2.23932,-2.911681 -2.60516,-6.326008 -2.89609,-9.873924 -0.12902,-4.612352 -0.69598,-9.196491 -1.43955,-13.745755 -0.077,-0.233246 -0.35842,-0.909678 -0.23094,-0.699733 4.95488,8.159638 -8.04295,4.781505 19.93769,-9.488517 0.50245,-0.256246 -0.15494,1.117936 -0.20091,1.680078 -0.12335,1.508633 -0.15783,3.471256 -0.2009,4.959681 0.0622,4.705564 -0.47668,9.430461 0.063,14.124966 0.44453,3.866891 1.03704,5.546854 2.0368,9.364273 3.77717,11.521882 10.39452,21.715415 17.97052,31.068375 5.50662,6.114664 11.15791,12.238162 17.64602,17.337086 1.75814,1.152803 3.60264,3.604543 5.86191,3.827859 0.14923,0.0043 0.29846,0.0086 0.4477,0.01295 0,0 -18.71839,12.87843478 -18.71839,12.87843478 v 0 c -0.1911,-0.0850679 -0.38219,-0.17013778 -0.57329,-0.25520764 -2.14393,-1.28256414 -3.93315,-3.10319344 -5.72727,-4.81683714 -5.99027,-5.723764 -11.40224,-12.04642 -16.83232,-18.292125 -7.587,-9.660383 -14.27877,-20.106127 -18.64574,-31.645432 -1.24828,-4.130582 -1.78544,-5.400826 -2.47589,-9.586764 -0.76705,-4.650338 -0.54484,-9.354415 -0.65287,-14.044546 -0.0268,-1.457902 -0.41891,-6.367233 -0.2329,-6.509758 4.72752,-3.622215 16.35052,-20.29929 20.27215,-11.22272 0.12343,0.28567 0.0323,0.621554 0.0484,0.932328 0.33246,4.642506 0.95524,9.251709 1.30179,13.889651 0.30993,3.320854 0.80372,6.384105 2.60734,9.261575 2.42914,6.855579 5.21879,13.58256 7.25387,20.576318 2.21883,8.107312 4.72712,16.147775 6.56641,24.343357 0.45767,3.852137 0.42377,7.727298 0.15039,11.596629 -0.38462,3.857938 -1.54098,7.3761645 -4.94705,9.6112989 -10.77296,8.3834396 -21.32156,16.4084797 -34.02742,22.1437931 -1.09063,0.455664 -2.14168,1.020984 -3.27189,1.366993 -5.65487,1.731209 -11.65163,-0.261202 -17.23478,-1.245571 -8.63607,-2.375138 -16.88419,-5.8121434 -23.26362,-12.3410834 -4.56279,-5.4657008 -6.46275,-9.402661 -4.39391,-16.5168856 3.64719,-10.336287 8.61529,-20.174573 14.22532,-29.577208 3.53464,-6.06466 9.77402,-15.165154 10.44968,-22.34226 0.0823,-0.874591 -0.0301,-1.756659 -0.0452,-2.634986 0.0151,-4.142922 -0.0896,-8.375274 1.12401,-12.38087 1.94351,-4.109931 5.30391,-7.19732 8.3761,-10.479463 9.05572,-8.81159 20.2088,-15.540656 32.21584,-19.541076 4.41107,-1.17596 8.89479,-2.17916 13.43205,-1.02404 0,0 -18.63924,12.856616 -18.63924,12.856616 z"
       inkscape:connector-curvature="0" />
    <path
       style="opacity:1;fill:#00ff00;fill-opacity:1;stroke:none;stroke-width:0.26458332"
       id="path841"
       d="m 251.3305,-154.77285 c -0.41569,3.32324 0.34266,6.55477 1.02,9.78351 1.99702,7.18731 5.14737,14.00942 8.42885,20.68742 5.06139,9.23696 9.88567,18.58981 14.515,28.050026 4.27114,9.361906 8.03635,18.943619 12.18428,28.363246 3.03773,7.196008 7.01487,13.902795 10.89024,20.661534 2.73469,4.426511 5.69064,8.717479 8.67516,12.97913 2.34284,3.509084 4.77838,6.926215 6.73428,10.670247 0.0347,0.06585 1.15774,2.23392 1.3066,2.376073 0.0872,0.08325 0.41156,-0.250462 0.30432,-0.195388 -6.51674,3.347035 -12.86142,7.048272 -19.53432,10.072022 -0.4908,0.222406 0.49009,-0.971632 0.61045,-1.496871 0.21643,-0.944554 0.26175,-1.920316 0.39264,-2.880474 0.56412,-9.597997 -1.77747,-19.024674 -3.2163,-28.449733 -1.36165,-11.188697 -2.14834,-22.439317 -3.07414,-33.670551 -0.58397,-5.498148 -1.45545,-10.964167 -2.50209,-16.392319 -0.60084,-2.392124 -0.28961,-4.867143 -0.25495,-7.304632 0.24159,-2.99093 0.38073,-6.05901 1.32527,-8.92949 3.33923,-8.0801 13.50243,-13.48666 22.21915,-13.13064 1.38933,0.0999 2.78437,0.1253 4.17719,0.13427 7.81047,0.0267 7.80031,-1.17801 -17.15222,9.91416 -1.25799,0.55921 1.98207,-1.92027 2.85115,-2.98795 2.80373,-3.44449 5.21374,-7.34121 7.64064,-11.04169 2.94751,-4.61231 5.4879,-9.46012 8.14255,-14.24065 0.47109,-0.84837 0.94337,-1.69632 1.43666,-2.53199 0.30144,-0.51066 0.44778,-1.18581 0.94686,-1.50605 6.48092,-4.15859 13.22713,-7.88844 19.84068,-11.83265 0.42294,0.45925 0.9306,0.85297 1.26879,1.37776 1.47351,2.28647 0.85838,7.06875 0.64349,9.60621 -0.79171,6.25614 -4.07014,11.80349 -6.93809,17.30753 -2.73608,5.28596 -4.22323,11.07207 -6.20839,16.65671 -2.54532,6.5183 -5.35041,12.934932 -8.18182,19.333734 -2.22917,4.509913 -2.74037,9.445691 -3.05316,14.388727 -0.19262,5.899608 -0.39904,8.871455 4.10993,13.029464 5.37163,3.272145 11.78692,3.505129 17.89853,3.831191 7.90083,0.343127 15.77986,1.028652 23.6855,1.351221 8.19185,0.313521 16.38896,0.317138 24.58461,0.217787 3.31298,0.08366 6.56532,0.723659 9.83782,1.167455 0.93154,0.699143 1.84168,1.314286 2.91647,1.769039 0.16121,0.242681 0.32242,0.48536 0.48364,0.728038 0,0 -19.5893,11.62173 -19.5893,11.62173 v 0 c 0.0161,0.04858 0.0321,0.09716 0.0481,0.145741 -0.76004,-0.469805 -1.48198,-1.169964 -2.38022,-1.286344 -2.95785,-0.628552 -5.92335,-1.251376 -8.96035,-1.337855 -8.10643,-0.17136 -16.21443,-0.265385 -24.31915,-0.50615 -7.97031,-0.317445 -15.92302,-0.904756 -23.89126,-1.25516 -6.63845,-0.440563 -13.48431,-0.879776 -19.08178,-4.887566 -4.68866,-4.617495 -5.27857,-8.269919 -4.95618,-14.71827 0.19175,-5.162534 0.41699,-10.416 2.67576,-15.168258 3.1655,-6.214663 5.97554,-12.619249 8.42124,-19.150654 1.79848,-5.74658 3.58256,-11.53926 6.13344,-17.00099 2.73574,-5.24285 5.93212,-10.50853 7.03638,-16.37699 0.18547,-2.65121 0.2018,-1.82114 0.11332,-4.26947 -0.0892,-2.4678 -0.0282,-0.7294 -0.20362,-2.78738 -0.008,-0.0956 -0.0595,-0.36303 2e-5,-0.28776 0.13867,0.17553 0.17405,0.41217 0.26107,0.61825 6.08637,-3.67987 12.07381,-7.52851 18.25905,-11.03961 0.58968,-0.33473 -0.98025,0.94256 -1.40414,1.47179 -4.25363,5.31074 -7.02059,11.67002 -10.79434,17.29548 -7.00278,11.36651 -13.10568,26.28801 -30.46949,25.6738 -1.35419,-0.0283 -2.72921,-0.0951 -4.07006,0.12211 -0.61762,0.18112 -0.32909,0.0407 -0.86199,0.4285 6.36418,-3.64654 12.72839,-7.29307 19.09257,-10.93961 0.35476,-0.20802 -0.86638,-0.0166 -1.2179,0.19683 -0.19849,0.12051 -0.29279,0.36054 -0.43918,0.5408 -1.56808,2.40502 -1.68069,5.39893 -2.06897,8.1851 0.0469,2.32421 0.19281,4.63972 0.31549,6.96025 0.38264,5.717152 1.01563,11.414798 1.37592,17.133905 0.5257,11.207572 1.59207,22.384466 2.95695,33.519342 1.49112,9.477991 3.75206,18.869051 4.1747,28.483209 0.007,0.961025 0.003,1.922195 0.0214,2.883074 0.0132,0.69749 0.65344,1.704663 0.0729,2.091575 -18.12248,12.0791437 -17.33674,17.7612689 -22.20182,7.99961 -1.64534,-3.772539 -4.10599,-7.040433 -6.26213,-10.528958 -3.01035,-4.333205 -6.08849,-8.642021 -8.63063,-13.273531 -3.67488,-6.958976 -7.44747,-13.857954 -10.48769,-21.129318 -3.98478,-9.461301 -7.75223,-19.013966 -11.95211,-28.380007 -4.59937,-9.460857 -9.51477,-18.755731 -14.68835,-27.915591 -3.50507,-6.73055 -6.90824,-13.56248 -9.47613,-20.71299 -0.8148,-3.29609 -1.74889,-6.57042 -1.68888,-10.00076 0,0 20.18212,-10.2833 20.18212,-10.2833 z"
       inkscape:connector-curvature="0" />
    <path
       style="opacity:1;fill:#00ff00;fill-opacity:1;stroke:none;stroke-width:0.26458332"
       id="path843"
       d="m 388.54734,-131.06254 c 6.2466,0.32206 12.50357,0.41053 18.75335,0.17617 6.79529,-0.50017 13.68705,-1.67215 20.05446,-4.19341 3.42697,-1.35696 5.03452,-2.41921 8.16933,-4.21601 -28.70536,16.40844 -13.71208,9.28857 -9.44089,2.43895 0.93118,-1.49329 1.00261,-1.96889 1.58605,-3.60518 0.97724,-4.0188 0.79589,-8.19189 0.85405,-12.29595 0.64566,-8.67227 -2.24214,-16.71163 -5.96863,-24.38706 -4.12962,-7.11571 -8.68424,-12.66695 -16.0981,-16.37646 -5.0356,-1.77232 -10.60934,-2.82743 -15.9449,-2.09262 -6.2094,6.24275 0.45381,-0.67066 16.78376,-8.96858 0.51988,-0.26416 -0.68874,0.95408 -0.91244,1.49259 -0.28234,0.67964 -0.44344,1.40626 -0.59129,2.12721 -0.38029,1.854 -0.4114,3.22478 -0.54163,5.10786 -0.003,5.78295 -0.1502,11.44932 -1.3394,17.12263 -1.80356,7.17183 -3.61667,14.32999 -4.86204,21.62384 -1.09982,7.04018 -1.37623,14.16171 -1.57281,21.27237 -0.0348,7.57504 -0.26998,15.15862 0.1094,22.72706 0.72509,8.26057 5.93188,13.877843 12.02069,18.93888 8.45288,6.713905 18.50998,10.140616 28.84164,12.692721 10.25996,2.10349 20.76294,2.792889 31.21708,2.547713 9.05536,-0.664404 17.2662,-4.488672 25.35235,-8.30662 2.07028,-1.075175 4.28027,-1.863403 6.35658,-2.92639 0.75901,-0.38857 2.955,-1.703173 2.21414,-1.281086 -29.99163,17.086596 -20.74627,12.661299 -14.85299,8.131447 1.27537,-0.822968 1.75088,-2.008338 2.01655,-3.421909 0,0 20.29044,-10.179134 20.29044,-10.179134 v 0 c 0.0495,1.821021 -0.40502,3.737274 -1.47068,5.222877 -9.19398,7.815249 -20.41004,12.920925 -31.36366,17.815311 -8.20592,3.706636 -16.55701,7.193492 -25.70924,7.451204 -10.50729,0.02318 -21.03861,-0.892021 -31.31323,-3.160747 -10.6013,-2.808663 -20.90459,-6.431179 -29.65714,-13.280286 -6.53259,-5.45633 -12.2632,-11.446571 -13.16414,-20.326151 -0.39616,-7.61394 -0.13819,-15.24663 -0.16335,-22.86848 0.0682,-7.2238 0.2463,-14.47157 1.52712,-21.60254 1.18002,-7.26175 2.68886,-14.45606 4.51332,-21.58389 1.30434,-5.53136 1.48989,-11.06445 1.35318,-16.7359 0.0558,-1.19446 0.35137,-9.34551 1.11017,-9.88896 16.90529,-12.10747 12.58131,-10.99783 21.72912,-12.91167 5.55693,0.16237 11.18441,0.97267 16.25557,3.35396 7.49501,4.38361 12.09514,10.27249 16.22457,17.86357 3.75118,7.80045 7.40018,15.95045 7.24416,24.78141 0.13721,4.27266 0.31551,8.59246 -0.44186,12.82113 -3.16058,13.05241 -18.97345,18.22605 -28.87456,24.10172 -9.13177,4.6581 -18.46966,7.05279 -28.73443,7.57085 -6.62633,0.27608 -13.25936,0.23329 -19.88466,0.54144 0,0 18.32499,-13.31388 18.32499,-13.31388 z"
       inkscape:connector-curvature="0" />
    <path
       style="opacity:1;fill:#00ff00;fill-opacity:1;stroke:none;stroke-width:0.26458332"
       id="path845"
       d="m 642.06418,-300.96849 c -5.03258,-0.23375 -10.06496,0.59005 -15.03524,1.30067 -9.99696,1.50249 -19.74932,4.0944 -29.02593,8.09725 -1.53995,0.73279 -3.09462,1.43545 -4.61989,2.19832 -1.57421,0.78735 -3.13094,1.60986 -4.6768,2.4515 -1.57792,0.8591 -6.2484,3.54994 -4.69333,2.65017 26.71214,-15.4559 13.64945,-7.92866 7.73776,-4.09636 -3.98738,2.5045 -5.51519,4.80425 -6.23094,9.36649 -0.46841,5.58498 -0.33144,11.20984 -0.25582,16.80994 0.43862,4.91625 -0.55994,10.02108 0.3597,14.90023 0.17486,0.92775 0.54015,1.80925 0.81023,2.71388 2.7069,6.07206 8.97364,7.15399 14.92552,8.00131 11.16388,1.03275 22.38727,-0.7552 33.45889,-2.0887 13.11685,-1.69359 26.31488,-2.57695 39.5233,-3.12117 8.40785,0.0127 16.88904,-1.13436 25.23548,0.19941 5.78707,1.29763 7.58174,4.79732 9.39022,9.96983 0.6019,3.34501 2.16932,8.13936 1.50175,11.5349 -0.20624,1.04894 -0.69046,2.02349 -1.03566,3.03523 -0.90207,1.26293 -1.68198,2.62273 -2.70618,3.78879 -3.28597,3.74102 -9.60676,9.20957 -13.06402,12.15156 -7.3329,6.23998 -15.14755,12.53831 -22.9014,18.21797 -4.49692,3.29395 -9.13525,6.39035 -13.70285,9.58552 -20.62819,13.01607 -41.76583,25.6147 -64.64679,34.27821 -7.09199,2.68528 -9.11238,3.0874 -16.06865,5.00842 -10.7533,2.52103 -21.77978,3.3428 -32.7362,4.47174 -10.33325,1.07458 -20.70968,1.59703 -31.07788,2.19323 -4.01794,0.13412 -7.20947,1.15505 -9.33344,-2.83996 -0.65776,-2.07171 -0.42188,-4.28538 -0.3845,-6.42684 0.0143,-1.31673 0.066,-2.63276 0.0725,-3.94954 0.13745,-0.95107 -0.81005,-1.06854 -1.73403,-1.62436 -1.66587,-1.17705 -3.41222,-2.14567 -5.01779,-3.40624 0,0 19.09191,-12.00604 19.09191,-12.00604 v 0 c 1.49727,1.19611 3.18317,2.13466 4.8293,3.10754 1.37295,0.72572 3.1024,1.89693 3.07674,3.64725 -0.0292,1.3545 -0.053,2.71017 -0.16481,4.0613 -0.10906,1.80433 -0.21955,3.62208 -0.0806,5.42704 0.70009,1.89952 5.65029,1.04707 7.08552,1.23855 10.18167,-0.16107 20.35334,-0.76958 30.47241,-1.93079 10.72337,-1.19666 21.5117,-2.09191 32.07654,-4.37686 8.46871,-2.20864 16.60237,-4.82294 24.65928,-8.3017 3.88347,-1.67679 7.56536,-3.82275 11.52368,-5.31431 0.70433,-0.26541 -2.26917,1.94919 -1.61329,1.5799 4.749,-2.67392 9.30055,-5.68435 13.95082,-8.52653 4.44952,-3.11763 8.98011,-6.12264 13.34857,-9.35289 7.72803,-5.71448 14.1301,-11.06021 21.25181,-17.40116 3.25916,-2.90185 8.28836,-7.56975 11.41603,-11.03467 0.88445,-0.97979 1.64237,-2.06674 2.46356,-3.1001 0.39269,-0.73824 0.93197,-1.41556 1.17808,-2.2147 0.87982,-2.85681 -0.62687,-7.92714 -1.10424,-10.82864 -1.5178,-4.52175 -2.89015,-7.10239 -7.92892,-8.05507 -8.00812,-1.14414 -16.15197,-0.42489 -24.21044,-0.44154 -13.05536,0.42014 -26.09926,1.22677 -39.05067,2.99371 -11.4908,1.45323 -23.12924,3.483 -34.73027,2.29689 -6.84363,-1.1089 -13.42392,-3.0574 -16.4176,-9.95523 -0.31324,-1.02696 -0.70787,-2.03255 -0.93972,-3.08089 -1.09025,-4.92983 -0.18953,-10.07818 -0.54012,-15.06995 -0.0378,-5.63761 -0.19678,-11.27485 -0.12285,-16.91321 0.31972,-4.83539 1.46645,-8.62817 5.84242,-11.32779 13.88041,-8.91038 28.18781,-17.27679 43.15624,-24.21898 9.49513,-3.77764 19.41706,-6.15527 29.49631,-7.81291 5.37702,-0.88072 10.77769,-1.74696 16.24126,-1.7735 0,0 -18.32499,13.31388 -18.32499,13.31388 z"
       inkscape:connector-curvature="0" />
    <path
       style="opacity:1;fill:#ff00ff;fill-opacity:1;stroke:none;stroke-width:0.26458332"
       id="path847"
       d="m 333.75139,19.482891 c -0.39793,5.959476 -0.38944,11.937387 -0.45429,17.907279 -0.0493,7.601352 0.007,15.202445 0.0578,22.803601 0.37222,8.461158 0.67061,16.897535 0.63836,25.375121 -0.15129,15.191218 -0.0451,30.384508 0.53226,45.566068 0.54986,4.85324 -0.12925,9.92301 1.04418,14.69973 0.28609,1.1608 0.63291,2.30919 1.07778,3.41956 3.07689,7.17856 -21.13478,18.3224 -19.97771,9.67705 0,0 20.15702,-10.24344 20.15702,-10.24344 v 0 c 0.88657,7.95394 -18.22474,19.52167 -20.18694,11.53893 -0.29795,-1.24102 -0.58701,-2.4842 -0.89699,-3.72232 -1.11488,-5.19736 0.46879,-10.61511 0.15647,-15.8719 0.46818,-15.20401 0.49636,-30.4283 -0.30302,-45.622858 -0.52404,-8.321281 -1.5361,-16.626178 -1.57457,-24.96521 0.0504,-7.620799 0.10705,-15.241537 0.0578,-22.862529 -0.0639,-5.815436 -0.0477,-11.640082 -0.45429,-17.444325 0,0 20.12608,-10.254757 20.12608,-10.254757 z"
       inkscape:connector-curvature="0" />
    <path
       style="opacity:1;fill:#ff00ff;fill-opacity:1;stroke:none;stroke-width:0.26458332"
       id="path849"
       d="m 333.77941,23.866476 c -0.73006,6.232606 1.62682,8.144233 6.22798,12.071203 13.43286,9.084619 27.68592,16.8866 41.41131,25.524806 16.92367,10.905408 33.75731,21.955773 50.95721,32.423179 11.61593,6.908826 23.45209,13.434386 35.13289,20.234526 8.43758,4.55964 17.01678,8.86055 25.36131,13.59302 2.95831,1.59724 5.94072,3.09447 8.72239,4.98558 0,0 -19.10599,12.11158 -19.10599,12.11158 v 0 c -2.47187,-1.974 -5.25266,-3.52451 -7.86942,-5.29143 -7.96298,-5.10051 -16.34604,-9.47212 -24.61456,-14.0439 C 438.46318,118.69636 426.95,111.85749 415.67224,104.65077 398.79008,93.826636 382.24346,82.482625 365.17442,71.948396 350.92401,63.398936 336.13256,55.833197 321.88385,47.29803 c -4.80719,-3.760491 -8.4202,-6.684237 -8.28656,-13.148249 0,0 20.18212,-10.283305 20.18212,-10.283305 z"
       inkscape:connector-curvature="0" />
    <path
       style="opacity:1;fill:#ff00ff;fill-opacity:1;stroke:none;stroke-width:0.26458332"
       id="path851"
       d="m 337.99301,131.14982 c 3.36616,-0.53378 6.71449,-1.33355 9.98884,-2.29447 11.46564,-3.10143 22.77276,-6.79441 34.06928,-10.46019 13.55979,-4.68553 27.43293,-8.35275 41.04923,-12.85928 12.19134,-4.30644 24.51346,-8.14005 37.07564,-11.202946 5.13355,-1.128709 10.31092,-2.193493 15.56375,-2.551633 0,0 -18.12576,13.337059 -18.12576,13.337059 v 0 c -4.79486,0.24773 -9.54535,1.0381 -14.23855,2.02623 -12.44693,2.83572 -24.52627,6.83852 -36.57206,11.04108 -13.45803,4.38919 -27.18943,7.87142 -40.57573,12.49071 -11.87514,3.93795 -23.71667,7.99519 -35.69589,11.60718 -3.49094,0.95381 -7.0031,1.80236 -10.52597,2.62032 0,0 17.98722,-13.75406 17.98722,-13.75406 z"
       inkscape:connector-curvature="0" />
    <path
       style="opacity:1;fill:#ff00ff;fill-opacity:1;stroke:none;stroke-width:0.26458332"
       id="path853"
       d="m 469.66745,-28.045807 c 0.29708,4.612105 1.84656,9.10443 2.96037,13.577695 2.61231,13.1273449 9.71886,24.4606259 16.94021,35.489456 12.56851,18.256562 27.53479,34.667708 41.72146,51.65014 9.49688,11.39372 18.01609,23.537193 26.87172,35.420806 1.96064,1.71412 5.5441,8.80006 8.00698,9.61847 0,0 -19.18608,12.07727 -19.18608,12.07727 v 0 c -2.85247,-3.29679 -4.59205,-7.40148 -7.08953,-10.94628 C 531.93002,106.46818 523.90468,94.121114 514.71102,82.60654 500.80817,65.306439 485.97176,48.760229 472.83187,30.855814 465.09752,20.034442 456.78378,9.0427674 453.49046,-4.0852918 c -1.28379,-4.5739838 -2.85047,-9.0675652 -4.00513,-13.6772092 0,0 20.18212,-10.283306 20.18212,-10.283306 z"
       inkscape:connector-curvature="0" />
    <path
       style="opacity:1;fill:#ff00ff;fill-opacity:1;stroke:none;stroke-width:0.26458332"
       id="path855"
       d="m 443.56064,-6.1099675 c 0.31089,-0.3204538 0.653,-0.6133174 0.93263,-0.9613609 1.39047,-1.7305552 2.38284,-3.7136056 3.83469,-5.4122556 2.03126,-2.376548 2.94875,-3.045324 5.36784,-5.225905 14.0966,-10.509964 29.77163,-19.174549 46.5247,-24.589734 7.762,-2.407099 15.88125,-2.727724 23.93231,-3.073939 2.93915,0.126182 5.93849,-0.435489 8.87658,-0.171628 0.0874,0.0079 3.19178,0.597223 3.26123,0.61036 4.2377,1.480378 8.38303,3.308863 12.42303,5.272852 5.15935,2.441628 9.87002,5.70239 14.26673,9.321765 3.71854,3.542073 4.90194,8.11564 5.52268,13.02418 0.0584,3.991602 0.5447,8.099151 -0.20955,12.0596325 -0.64799,3.4025177 -1.48963,5.08870299 -2.76032,8.3427889 -4.41066,10.1000406 -10.82604,19.0918716 -16.72966,28.3364506 -3.24868,4.98982 -6.40143,10.047838 -9.75225,14.970448 -1.63134,3.276827 -4.17986,5.781598 -6.72502,8.334994 -0.74813,0.798692 -1.52101,1.561182 -2.3604,2.262044 0,0 -21.04173,8.225444 -21.04173,8.225444 v 0 c 1.02288,-0.530315 2.02128,-1.021517 2.75736,-1.954215 2.54301,-2.462507 5.49171,-4.604668 6.91705,-7.95696 3.59606,-5.15968 7.50861,-10.107507 10.90864,-15.411614 5.95937,-9.023348 12.24883,-17.900034 16.64102,-27.834827 1.13379,-2.8095207 2.06052,-4.709809 2.6715,-7.6559938 0.78179,-3.76981568 0.19709,-7.6489588 0.0643,-11.4465691 -0.41373,-4.3544281 -1.24659,-8.4826271 -4.54139,-11.6420721 -4.23868,-3.585699 -8.93294,-6.567719 -14.0154,-8.820033 -3.97082,-1.824037 -8.02876,-3.667231 -12.31305,-4.598664 -3.78431,-0.526019 -7.61399,-0.409118 -11.42717,-0.416309 -7.80616,0.181576 -15.63079,0.85254 -23.1172,3.227737 -4.31064,1.454335 -5.21589,1.660863 -9.49536,3.529237 -1.73504,0.757508 -6.70727,3.475734 -5.14388,2.408002 4.16711,-2.845977 8.68286,-5.144926 12.99324,-7.768825 1.48625,-0.90473 -3.06001,1.664335 -4.52001,2.610852 -1.27106,0.824043 -2.44049,1.795182 -3.66072,2.692774 -3.69308,3.154693 -7.31665,6.446144 -9.1698,11.049048 0,0 -20.91264,8.6622955 -20.91264,8.6622955 z"
       inkscape:connector-curvature="0" />
    <path
       style="opacity:1;fill:#ff00ff;fill-opacity:1;stroke:none;stroke-width:0.26458332"
       id="path857"
       d="m 614.71648,-66.216603 c -0.39053,5.959409 -0.46167,11.936716 -0.54428,17.906873 0,6.197412 -0.28815,12.43508 0.61487,18.592355 0.57301,3.907157 1.4556,7.179706 2.37956,11.023369 2.97505,11.805062 8.61999,22.6218241 14.17693,33.365197 5.22142,9.708529 10.4217,19.420231 16.01747,28.920164 3.17418,4.919726 5.74038,10.277335 9.0741,15.091426 1.39396,2.069362 2.25878,4.455864 2.93336,6.844829 0.97612,2.126437 1.76567,4.316341 2.54719,6.522447 0.93483,2.804655 2.57345,5.202211 4.24172,7.602834 0,0 -19.40972,11.344423 -19.40972,11.344423 v 0 c -1.59922,-2.631038 -3.29557,-5.200364 -4.47673,-8.06159 -0.83171,-2.241915 -1.67875,-4.470079 -2.60791,-6.674908 -0.61897,-2.193544 -1.50162,-4.334859 -2.58345,-6.337096 -2.81707,-5.165394 -4.97975,-10.70669 -8.02931,-15.762637 -5.43057,-9.634399 -10.68488,-19.361025 -15.82682,-29.152355 -5.51325,-10.939479 -11.23058,-21.8618453 -14.4299,-33.7624445 -0.92271,-3.5004125 -2.06536,-7.5621475 -2.72976,-11.1357725 -1.15027,-6.187119 -0.97914,-12.430307 -0.98517,-18.691571 -0.0812,-5.785151 -0.1447,-11.578714 -0.54428,-17.352237 0,0 20.18213,-10.283306 20.18213,-10.283306 z"
       inkscape:connector-curvature="0" />
    <path
       style="opacity:1;fill:#ff00ff;fill-opacity:1;stroke:none;stroke-width:0.26458332"
       id="path859"
       d="m 584.17356,-64.287182 c 9.76646,-6.850573 19.92762,-13.832073 31.36805,-17.414753 9.1349,-2.811563 18.72826,-3.877654 28.19979,-4.926791 9.29518,-0.686699 18.62918,-1.514308 27.95519,-1.163507 6.96918,0.828418 12.82634,4.122705 18.25233,8.36219 5.82229,4.493924 9.3997,10.701748 12.43108,17.243454 2.73029,6.074471 3.111,12.698349 3.41916,19.246945 -0.21119,4.392186 0.92337,9.02576 -0.25694,13.351809 -1.00674,3.689993 -2.19879,4.965706 -4.29622,8.311682 -10.64805,12.3572606 -22.62214,23.5762016 -34.71818,34.506879 -10.86644,9.178971 -22.90315,17.937579 -36.1868,23.18106 -2.84763,1.006578 -3.04379,-0.116449 -4.04624,-2.719925 0,0 19.58104,-10.846686 19.58104,-10.846686 v 0 c 0.0505,0.190666 -0.004,0.450834 0.15153,0.571999 0.095,0.07398 0.15052,-0.197559 0.25686,-0.254075 0.50847,-0.270228 1.12104,-0.308078 1.60853,-0.629862 7.16693,-3.411722 1.96001,-0.976952 -15.69768,9.310983 -0.87137,0.507696 1.74612,-1.010393 2.60123,-1.545015 4.52853,-2.831227 8.86439,-5.964515 12.94037,-9.418885 12.0663,-10.462578 23.72482,-21.49534858 34.12884,-33.630745 1.70839,-2.624205 3.11132,-4.348225 4.09718,-7.277083 1.39732,-4.151156 0.33354,-8.703043 0.53745,-12.967113 -0.28006,-6.271096 -0.68643,-12.612491 -3.09946,-18.492086 -2.85046,-6.594385 -5.92669,-11.960802 -11.88035,-16.304241 -5.20872,-3.847372 -10.74396,-6.880397 -17.35367,-7.357801 -9.12001,-0.289332 -18.2585,0.229741 -27.33609,1.10449 -9.59607,1.142199 -19.29286,2.412529 -28.42932,5.702459 -9.18641,3.568025 -3.94031,1.731359 13.10648,-8.384876 0.67976,-0.403394 -1.38047,0.770562 -2.0637,1.168019 -0.70974,0.412861 -2.48015,1.468083 -3.19677,1.998792 -0.38193,0.282853 -0.72301,0.617061 -1.08453,0.925595 0,0 -20.98916,8.347088 -20.98916,8.347088 z"
       inkscape:connector-curvature="0" />
    <path
       style="opacity:1;fill:#ff00ff;fill-opacity:1;stroke:none;stroke-width:0.26458332"
       id="path861"
       d="m 752.32606,-81.858018 c 33.7467,-19.622252 17.79783,-12.434149 12.5441,-4.66358 -1.54032,2.590736 -1.95312,5.544182 -2.10486,8.500096 -0.10454,1.884529 -0.0846,3.771376 0.0504,5.653252 -0.47918,-1.107972 4.80709,-0.487643 5.19227,-0.477147 6.63567,0.73996 13.22199,1.771888 19.87417,2.382046 5.57594,0.468794 11.17116,0.575596 16.76332,0.639599 3.62246,0.306064 7.38015,-0.540886 10.94787,0.21401 2.60699,0.564349 3.91139,3.022524 5.29532,5.112795 1.76406,2.855127 2.36265,6.109036 2.70499,9.391351 0.25548,3.41099 0.17145,6.836355 0.17407,10.254353 0.20511,4.093202 -0.52152,6.814492 -3.62812,9.55488 -7.23466,13.158467 -18.74938,9.549178 -28.42977,14.785306 -0.52713,0.24457 -1.07167,0.454629 -1.58136,0.733711 -11.16219,6.111885 24.77206,-15.344982 11.72998,-6.376258 -1.07498,0.739234 -2.13971,1.493428 -3.19754,2.256988 -1.04966,0.75766 -2.08304,1.53761 -3.12457,2.306415 -9.80618,7.569898 -20.28479,14.7919369 -31.82766,19.405877 -2.54299,1.0169005 -3.34933,0.8814937 -4.8918,-1.4669733 -0.69366,-1.4997742 -0.87717,-3.1516478 -0.93263,-4.7850761 -0.0565,-1.0232807 0.0446,-2.0506596 0.10634,-3.0709586 0,0 19.96022,-10.162997 19.96022,-10.162997 v 0 c 0.0563,0.963072 0.14239,1.930324 0.10519,2.89611 0.0146,1.214549 -0.0421,2.459784 0.3279,3.632808 0.41079,0.55048 2.20496,-0.876765 2.88269,-0.931386 7.31295,-3.457321 1.54284,-0.774092 -16.0052,9.4670125 -0.69035,0.4028953 1.39337,-0.7842097 2.07761,-1.1974132 2.86616,-1.730847 5.56898,-3.6962183 8.15563,-5.8225743 10.56904,-7.969365 21.63558,-15.354868 33.77237,-20.789119 8.28323,-2.876063 23.39387,-9.70825 -9.84867,7.385989 3.48726,-2.298033 4.66196,-3.206218 4.48059,-7.705129 0.0198,-3.345781 0.0238,-6.693199 -0.14417,-10.035834 -0.22273,-2.915655 -0.58074,-5.85158 -2.16178,-8.389286 -1.16581,-1.642581 -2.22785,-3.296978 -4.37105,-3.505094 -3.48287,-0.224042 -6.98286,-0.06923 -10.46964,-0.204063 -5.50262,-0.117152 -10.99344,-0.470075 -16.46584,-1.06888 -6.73741,-0.687541 -13.45491,-1.711542 -20.2328,-1.885026 -2.61969,0.02635 -6.16704,0.680545 -7.47233,-2.193756 0.0678,-1.979731 0.0847,-3.959913 0.1348,-5.939919 0.21775,-3.231743 0.39513,-6.509687 1.7557,-9.509054 5.0946,-9.811763 16.08598,-13.323339 25.51922,-18.523431 0,0 -17.66501,14.130356 -17.66501,14.130356 z"
       inkscape:connector-curvature="0" />
  </g>
</svg>
