<?xml version="1.0" encoding="UTF-8" standalone="no"?>
<!-- Created with Inkscape (http://www.inkscape.org/) -->

<svg
   width="210mm"
   height="297mm"
   viewBox="0 0 210 297"
   version="1.1"
   id="svg8"
   inkscape:version="1.1.1 (3bf5ae0d25, 2021-09-20)"
   sodipodi:docname="icon.svg"
   xmlns:inkscape="http://www.inkscape.org/namespaces/inkscape"
   xmlns:sodipodi="http://sodipodi.sourceforge.net/DTD/sodipodi-0.dtd"
   xmlns="http://www.w3.org/2000/svg"
   xmlns:svg="http://www.w3.org/2000/svg"
   xmlns:rdf="http://www.w3.org/1999/02/22-rdf-syntax-ns#"
   xmlns:cc="http://creativecommons.org/ns#"
   xmlns:dc="http://purl.org/dc/elements/1.1/">
  <defs
     id="defs2" />
  <sodipodi:namedview
     id="base"
     pagecolor="#ffffff"
     bordercolor="#666666"
     borderopacity="1.0"
     inkscape:pageopacity="0.0"
     inkscape:pageshadow="2"
     inkscape:zoom="0.16403309"
     inkscape:cx="-408.45417"
     inkscape:cy="746.80054"
     inkscape:document-units="mm"
     inkscape:current-layer="layer1"
     showgrid="false"
     inkscape:window-width="1330"
     inkscape:window-height="743"
     inkscape:window-x="36"
     inkscape:window-y="0"
     inkscape:window-maximized="1"
     inkscape:pagecheckerboard="0" />
  <metadata
     id="metadata5">
    <rdf:RDF>
      <cc:Work
         rdf:about="">
        <dc:format>image/svg+xml</dc:format>
        <dc:type
           rdf:resource="http://purl.org/dc/dcmitype/StillImage" />
        <dc:title />
      </cc:Work>
    </rdf:RDF>
  </metadata>
  <g
     inkscape:label="Layer 1"
     inkscape:groupmode="layer"
     id="layer1">
    <rect
       style="fill:#8b5cf6;fill-opacity:1;stroke-width:0.264583"
       id="rect815"
       width="339.423"
       height="339.42264"
       x="-262.62308"
       y="-14.452381"
       inkscape:export-xdpi="74.832954"
       inkscape:export-ydpi="74.832954"
       inkscape:export-filename="/home/zen/aplikasi-android/cv/tambahan/icon.png" />
    <path
       fill="currentColor"
       d="M -43.028263,85.422278 H -142.7949 c -2.75921,0 -4.98826,2.22923 -4.98826,4.98845 V 220.10714 c 0,2.75922 2.22905,4.98846 4.98826,4.98846 h 99.766637 c 2.75922,0 4.98827,-2.22924 4.98827,-4.98846 V 90.410728 c 0,-2.75922 -2.22905,-4.98845 -4.98827,-4.98845 z m -40.53017,11.22388 h 14.96499 v 32.720292 l -7.24862,-5.28445 -7.71637,5.51823 z m 34.29475,117.225752 H -136.55947 V 96.646158 h 43.647997 v 46.282202 c 0,0.5147 0.15083,1.0294 0.46756,1.44983 a 2.4785756,2.4785756 0 0 0 3.47621,0.57692 l 13.06324,-9.33758 12.68898,9.25971 c 0.42044,0.31109 0.93513,0.48266 1.46493,0.48266 1.37253,0 2.49431,-1.12179 2.49431,-2.49413 V 96.645778 h 9.97653 V 213.87153 Z"
       id="path824-3"
       style="fill:#ffffff;stroke-width:0.155886"
       inkscape:export-filename="/home/zen/aplikasi-android/cv/tambahan/icon.png"
       inkscape:export-xdpi="74.832954"
       inkscape:export-ydpi="74.832954" />
  </g>
</svg>
