<?xml version="1.0" encoding="utf-8"?> <svg version="1.1" id="design_container" width="1000" height="500" xmlns="http://www.w3.org/2000/svg" xmlns:xlink="http://www.w3.org/1999/xlink" viewBox="0 0 1000 500" style="background-color: rgb(59,20,167); enable-background:new 0 0 1000 500;" xml:space="preserve"> <defs></defs><svg id="design-icon" width="1000" height="1000" viewBox="-700 -350 1400 1400"><g transform="matrix(0.5 0 0 0.5 -67.53 -7.11)" id="design-icon" ><path style="stroke: none; stroke-width: 1; stroke-dasharray: none; stroke-linecap: butt; stroke-dashoffset: 0; stroke-linejoin: miter; stroke-miterlimit: 4; fill: none; fill-rule: nonzero; opacity: 1;" transform=" translate(-114.94, -395.79)" d="M 86.386 337.801 C 73.571 360.46299999999997 64.654 381.424 60.206999999999994 399.527 C 55.00099999999999 420.717 56.04899999999999 436.92699999999996 64.482 445.621 C 72.575 453.967 87.849 455.69899999999996 107.991 451.76399999999995 C 126.644 448.12499999999994 148.703 439.63699999999994 172.837 426.91799999999995 C 134.606 407.7 104.381 376.256 86.386 337.801 z" stroke-linecap="round" /></g><g transform="matrix(0.5 0 0 0.5 -62.68 -141.27)" id="design-icon" ><path style="stroke: none; stroke-width: 1; stroke-dasharray: none; stroke-linecap: butt; stroke-dashoffset: 0; stroke-linejoin: miter; stroke-miterlimit: 4; fill: none; fill-rule: nonzero; opacity: 1;" transform=" translate(-124.64, -127.46)" d="M 120.529 138.256 C 126.493 140.527 133.17 137.532 135.43699999999998 131.568 C 137.712 125.60600000000001 134.719 118.92900000000002 128.75099999999998 116.66100000000002 C 122.79099999999998 114.38600000000001 116.11599999999997 117.38300000000001 113.84199999999997 123.34600000000002 C 111.573 129.309 114.565 135.986 120.529 138.256 z" stroke-linecap="round" /></g><g transform="matrix(0.5 0 0 0.5 75.66 -145.2)" id="design-icon" ><path style="stroke: none; stroke-width: 1; stroke-dasharray: none; stroke-linecap: butt; stroke-dashoffset: 0; stroke-linejoin: miter; stroke-miterlimit: 4; fill: none; fill-rule: nonzero; opacity: 1;" transform=" translate(-401.32, -119.59)" d="M 405.792 64.183 C 387.56899999999996 68.09800000000001 366.39399999999995 76.36500000000001 343.40799999999996 88.45 C 381.62499999999994 107.653 411.86799999999994 139.094 429.866 177.542 C 443.438 153.562 452.627 131.564 456.756 112.904 C 461.13599999999997 93.145 459.80899999999997 78.03399999999999 451.791 69.763 C 443.377 61.093 427.185 59.592 405.792 64.183 z" stroke-linecap="round" /></g><g transform="matrix(0.5 0 0 0.5 -0.73 -76.16)" id="design-icon" ><path style="stroke: none; stroke-width: 1; stroke-dasharray: none; stroke-linecap: butt; stroke-dashoffset: 0; stroke-linejoin: miter; stroke-miterlimit: 4; fill: rgb(255, 255, 255); fill-rule: nonzero; opacity: 1;" transform=" translate(-248.53, -257.67)" d="M 472.165 50.068 C 456.25 33.671 430.939 29.691999999999997 399.78200000000004 36.382999999999996 C 373.619 41.998 342.482 55.351 309.08400000000006 75.184 L 302.39700000000005 73.451 C 261.96500000000003 63.73299999999999 218.36300000000006 67.237 178.64600000000004 85.651 C 181.43200000000004 95.196 183.34700000000004 104.85499999999999 184.25100000000003 114.584 C 219.70700000000005 96.236 259.274 92.30600000000001 295.77500000000003 101.077 C 382.235 121.85499999999999 435.53000000000003 208.87099999999998 414.75500000000005 295.328 C 393.982 381.793 306.9580000000001 435.085 220.49700000000004 414.304 C 134.04000000000005 393.534 80.74100000000004 306.508 101.51800000000004 220.05199999999996 C 101.81500000000004 218.81599999999997 102.12800000000004 217.58299999999997 102.45400000000005 216.35399999999996 C 127.97600000000006 230.11099999999996 137.84100000000007 256.484 141.39800000000005 270.46999999999997 C 142.82600000000005 276.08599999999996 143.24000000000007 279.70799999999997 143.24000000000007 279.70799999999997 C 161.11000000000007 249.32399999999996 167.89700000000008 219.21399999999997 145.62000000000006 189.81699999999995 C 168.37700000000007 154.44799999999995 170.04700000000005 111.92899999999995 149.59400000000005 61.91499999999995 C 101.05800000000005 85.66499999999995 74.03200000000005 118.52099999999996 67.50100000000005 160.07599999999996 C 31.321000000000048 167.21499999999997 16.35700000000005 194.21199999999996 9.499000000000045 228.78799999999995 C 9.499000000000045 228.78799999999995 34.93300000000005 211.39599999999996 64.37100000000004 208.93699999999995 C 67.90100000000004 208.64199999999997 71.48900000000003 208.56599999999995 75.09600000000003 208.75699999999995 C 74.67700000000004 210.30999999999995 74.26900000000003 211.86699999999996 73.89300000000003 213.43199999999996 C 66.89200000000002 242.58499999999995 66.75900000000003 273.385 74.13300000000002 303.188 C 53.303000000000026 335.993 39.02500000000003 366.731 32.632000000000026 392.75199999999995 C 25.048000000000027 423.62699999999995 28.258000000000028 448.97299999999996 44.108000000000025 465.3159999999999 C 59.486000000000026 481.16399999999993 83.69200000000004 485.3859999999999 113.49700000000001 479.5659999999999 C 140.454 474.3019999999999 172.70300000000003 460.7249999999999 207.243 440.21199999999993 L 213.875 441.92999999999995 C 315.652 466.39099999999996 417.923 403.75899999999996 442.38 301.94999999999993 C 449.379 272.81699999999995 449.515 242.03599999999994 442.153 212.24699999999993 C 463.908 178.00799999999992 478.524 145.90099999999993 484.487 118.97499999999992 C 490.959 89.769 487.397 65.77 472.165 50.068 z M 113.842 123.345 C 116.115 117.382 122.791 114.38499999999999 128.751 116.66 C 134.719 118.929 137.71200000000002 125.606 135.437 131.567 C 133.17000000000002 137.531 126.49400000000001 140.525 120.52900000000001 138.255 C 114.565 135.986 111.573 129.309 113.842 123.345 z M 107.991 451.765 C 87.849 455.70099999999996 72.575 453.969 64.482 445.622 C 56.049 436.928 55.001 420.717 60.207 399.528 C 64.654 381.425 73.571 360.463 86.386 337.802 C 104.381 376.257 134.606 407.701 172.837 426.91900000000004 C 148.703 439.638 126.645 448.126 107.991 451.765 z M 456.756 112.904 C 452.62699999999995 131.564 443.438 153.562 429.866 177.542 C 411.86899999999997 139.095 381.626 107.653 343.408 88.45 C 366.39300000000003 76.36500000000001 387.568 68.098 405.79200000000003 64.183 C 427.18500000000006 59.592000000000006 443.37800000000004 61.093 451.79200000000003 69.763 C 459.809 78.035 461.136 93.146 456.756 112.904 z" stroke-linecap="round" /></g><g transform="matrix(1 0 0 1 0 111.81)" style="" id="design-company-name" > <text xml:space="preserve" font-family="Capriola" font-size="90" font-style="normal" font-weight="normal" style="stroke: none; stroke-width: 1; stroke-dasharray: none; stroke-linecap: butt; stroke-dashoffset: 0; stroke-linejoin: miter; stroke-miterlimit: 4; fill: rgb(255, 255, 255); fill-rule: nonzero; opacity: 1; white-space: pre;" ><tspan x="-259.56" y="28.27" >Tri Handayani</tspan></text></g><g transform="matrix(1 0 0 1 0 190.6)" style="" id="design-company-slogan" > <text xml:space="preserve" font-family="Poppins" font-size="30" font-style="normal" font-weight="normal" style="stroke: none; stroke-width: 1; stroke-dasharray: none; stroke-linecap: butt; stroke-dashoffset: 0; stroke-linejoin: miter; stroke-miterlimit: 4; fill: rgb(255, 255, 255); fill-rule: nonzero; opacity: 1; white-space: pre;" ><tspan x="-366.42" y="9.42" >Create applications that are useful for human life</tspan></text></g></svg></svg>