<?xml version="1.0" encoding="UTF-8" standalone="no"?>
<!-- Created with Inkscape (http://www.inkscape.org/) -->

<svg
   width="210mm"
   height="297mm"
   viewBox="0 0 210 297"
   version="1.1"
   id="svg8"
   inkscape:version="1.1.1 (3bf5ae0d25, 2021-09-20)"
   sodipodi:docname="icon.svg"
   xmlns:inkscape="http://www.inkscape.org/namespaces/inkscape"
   xmlns:sodipodi="http://sodipodi.sourceforge.net/DTD/sodipodi-0.dtd"
   xmlns="http://www.w3.org/2000/svg"
   xmlns:svg="http://www.w3.org/2000/svg"
   xmlns:rdf="http://www.w3.org/1999/02/22-rdf-syntax-ns#"
   xmlns:cc="http://creativecommons.org/ns#"
   xmlns:dc="http://purl.org/dc/elements/1.1/">
  <defs
     id="defs2" />
  <sodipodi:namedview
     id="base"
     pagecolor="#ffffff"
     bordercolor="#666666"
     borderopacity="1.0"
     inkscape:pageopacity="0.0"
     inkscape:pageshadow="2"
     inkscape:zoom="0.16403309"
     inkscape:cx="-384.06885"
     inkscape:cy="746.80054"
     inkscape:document-units="mm"
     inkscape:current-layer="layer1"
     showgrid="false"
     inkscape:window-width="1330"
     inkscape:window-height="743"
     inkscape:window-x="36"
     inkscape:window-y="0"
     inkscape:window-maximized="1"
     inkscape:pagecheckerboard="0" />
  <metadata
     id="metadata5">
    <rdf:RDF>
      <cc:Work
         rdf:about="">
        <dc:format>image/svg+xml</dc:format>
        <dc:type
           rdf:resource="http://purl.org/dc/dcmitype/StillImage" />
        <dc:title />
      </cc:Work>
    </rdf:RDF>
  </metadata>
  <g
     inkscape:label="Layer 1"
     inkscape:groupmode="layer"
     id="layer1">
    <rect
       style="fill:#f97316;fill-opacity:1;stroke-width:0.264583"
       id="rect815"
       width="339.42264"
       height="339.42264"
       x="-256.46426"
       y="-14.452381"
       inkscape:export-xdpi="74.832954"
       inkscape:export-ydpi="74.832954"
       inkscape:export-filename="/home/zen/aplikasi-android/kartu-rencana/tambahan/icon.png" />
    <path
       d="m -119.7553,102.45342 a 6.6006976,6.6006976 0 0 1 6.60074,-6.600736 h 52.805537 a 6.600698,6.600698 0 1 1 0,13.201286 v 37.09609 l 31.60414,35.55788 c 11.35324,12.77226 2.29037,32.9573 -14.7988,32.9573 h -86.416397 c -17.08917,0 -26.15186,-20.18504 -14.80535,-32.9573 l 31.61087,-35.55788 v -37.09609 a 6.6006976,6.6006976 0 0 1 -6.60074,-6.60055 z m 19.802027,6.60055 v 39.60425 a 6.6006976,6.6006976 0 0 1 -1.668977,4.38297 l -33.26752,37.43905 c -3.79545,4.25087 -0.77275,10.98352 4.92408,10.98352 h 86.416387 c 5.69646,0 8.71954,-6.73265 4.93737,-10.98352 l -33.27425,-37.43905 a 6.6006976,6.6006976 0 0 1 -1.66338,-4.38297 v -39.60425 z"
       id="path827"
       style="fill:#ffffff;stroke-width:6.6007"
       inkscape:export-filename="/home/zen/aplikasi-android/kartu-rencana/tambahan/icon.png"
       inkscape:export-xdpi="74.832954"
       inkscape:export-ydpi="74.832954" />
  </g>
</svg>
