<?xml version="1.0" encoding="UTF-8" standalone="no"?>
<!-- Created with Inkscape (http://www.inkscape.org/) -->

<svg
   width="210mm"
   height="297mm"
   viewBox="0 0 210 297"
   version="1.1"
   id="svg8"
   inkscape:version="1.1.1 (3bf5ae0d25, 2021-09-20)"
   sodipodi:docname="icon.svg"
   xmlns:inkscape="http://www.inkscape.org/namespaces/inkscape"
   xmlns:sodipodi="http://sodipodi.sourceforge.net/DTD/sodipodi-0.dtd"
   xmlns="http://www.w3.org/2000/svg"
   xmlns:svg="http://www.w3.org/2000/svg"
   xmlns:rdf="http://www.w3.org/1999/02/22-rdf-syntax-ns#"
   xmlns:cc="http://creativecommons.org/ns#"
   xmlns:dc="http://purl.org/dc/elements/1.1/">
  <defs
     id="defs2" />
  <sodipodi:namedview
     id="base"
     pagecolor="#ffffff"
     bordercolor="#666666"
     borderopacity="1.0"
     inkscape:pageopacity="0.0"
     inkscape:pageshadow="2"
     inkscape:zoom="0.16403309"
     inkscape:cx="-591.3441"
     inkscape:cy="746.80054"
     inkscape:document-units="mm"
     inkscape:current-layer="layer1"
     showgrid="false"
     inkscape:window-width="1330"
     inkscape:window-height="743"
     inkscape:window-x="36"
     inkscape:window-y="0"
     inkscape:window-maximized="1"
     inkscape:pagecheckerboard="0" />
  <metadata
     id="metadata5">
    <rdf:RDF>
      <cc:Work
         rdf:about="">
        <dc:format>image/svg+xml</dc:format>
        <dc:type
           rdf:resource="http://purl.org/dc/dcmitype/StillImage" />
        <dc:title />
      </cc:Work>
    </rdf:RDF>
  </metadata>
  <g
     inkscape:label="Layer 1"
     inkscape:groupmode="layer"
     id="layer1">
    <rect
       style="fill:#0ea5e9;fill-opacity:1;stroke-width:0.264583"
       id="rect815"
       width="339.42264"
       height="339.42264"
       x="-381.96872"
       y="-14.452381"
       inkscape:export-xdpi="74.832954"
       inkscape:export-ydpi="74.832954"
       inkscape:export-filename="/home/zen/aplikasi-android/belajar-pemrograman-offline/bahan/icon.png" />
    <g
       id="g1115"
       transform="matrix(4.7157062,0,0,4.7157062,-297.14011,70.376226)"
       inkscape:export-filename="/home/zen/aplikasi-android/belajar-pemrograman-offline/bahan/icon.png"
       inkscape:export-xdpi="74.832954"
       inkscape:export-ydpi="74.832954">
      <path
         fill="#ffffff"
         d="M 33.53,18.76 26.6,15.57 V 6.43 A 1,1 0 0 0 26,5.53 L 18.5,2.08 a 1,1 0 0 0 -0.84,0 l -7.5,3.45 A 1,1 0 0 0 9.58,6.44 v 9.14 l -6.9,3.18 A 1,1 0 0 0 2.1,19.67 v 9.78 a 1,1 0 0 0 0.58,0.91 l 7.5,3.45 a 1,1 0 0 0 0.84,0 l 7.08,-3.26 7.08,3.26 a 1,1 0 0 0 0.84,0 l 7.5,-3.45 A 1,1 0 0 0 34.1,29.45 V 19.67 A 1,1 0 0 0 33.53,18.76 Z M 25.61,22 20.5,19.67 l 5.11,-2.35 5.11,2.35 z m -1,-6.44 -6.44,3 v -7.69 a 1,1 0 0 0 0.35,-0.08 L 24.6,8 v 7.58 z M 18.1,4.08 23.21,6.43 18.1,8.78 13,6.43 Z M 10.6,17.31 15.71,19.66 10.6,22 5.49,19.67 Z m 6.5,11.49 -6.5,3 V 24.11 A 1,1 0 0 0 11,24 l 6.08,-2.8 z m 15,0 -6.46,3 V 24.11 A 1,1 0 0 0 26,24 l 6.08,-2.8 z"
         class="clr-i-solid clr-i-solid-path-1"
         id="path1103" />
      <path
         fill="none"
         d="M 0,0 H 36 V 36 H 0 Z"
         id="path1105" />
    </g>
  </g>
</svg>
